<svg xmlns="http://www.w3.org/2000/svg" xmlns:xlink="http://www.w3.org/1999/xlink" width="500" zoomAndPan="magnify" viewBox="0 0 375 374.999991" height="500" preserveAspectRatio="xMidYMid meet" version="1.0"><defs><g/><clipPath id="1bfaa2fd26"><path d="M 14.898438 110.777344 L 359.898438 110.777344 L 359.898438 250.277344 L 14.898438 250.277344 Z M 14.898438 110.777344 " clip-rule="nonzero"/></clipPath><clipPath id="10692ea7b1"><path d="M 48.648438 110.777344 L 326.34375 110.777344 C 344.984375 110.777344 360.09375 125.890625 360.09375 144.527344 L 360.09375 216.800781 C 360.09375 235.4375 344.984375 250.546875 326.34375 250.546875 L 48.648438 250.546875 C 30.011719 250.546875 14.898438 235.4375 14.898438 216.800781 L 14.898438 144.527344 C 14.898438 125.890625 30.011719 110.777344 48.648438 110.777344 Z M 48.648438 110.777344 " clip-rule="nonzero"/></clipPath><clipPath id="9d80c2be8f"><path d="M 17.148438 110.777344 L 362.148438 110.777344 L 362.148438 250.277344 L 17.148438 250.277344 Z M 17.148438 110.777344 " clip-rule="nonzero"/></clipPath><clipPath id="e697c9b157"><path d="M 50.898438 110.777344 L 328.59375 110.777344 C 347.234375 110.777344 362.34375 125.890625 362.34375 144.527344 L 362.34375 216.800781 C 362.34375 235.4375 347.234375 250.546875 328.59375 250.546875 L 50.898438 250.546875 C 32.261719 250.546875 17.148438 235.4375 17.148438 216.800781 L 17.148438 144.527344 C 17.148438 125.890625 32.261719 110.777344 50.898438 110.777344 Z M 50.898438 110.777344 " clip-rule="nonzero"/></clipPath><clipPath id="cbb19eb4c6"><path d="M 29.296875 230.324219 L 255.75 230.324219 L 255.75 264.222656 L 29.296875 264.222656 Z M 29.296875 230.324219 " clip-rule="nonzero"/></clipPath><clipPath id="fe01fce556"><path d="M 220.628906 239.582031 L 244.628906 239.582031 L 244.628906 259.832031 L 220.628906 259.832031 Z M 220.628906 239.582031 " clip-rule="nonzero"/></clipPath></defs><rect x="-37.5" width="450" fill="#ffffff" y="-37.499999" height="449.999989" fill-opacity="1"/><rect x="-37.5" width="450" fill="#fff6ea" y="-37.499999" height="449.999989" fill-opacity="1"/><g clip-path="url(#1bfaa2fd26)"><g clip-path="url(#10692ea7b1)"><path stroke-linecap="butt" transform="matrix(0.75, 0, 0, 0.75, 14.899977, 110.779183)" fill="none" stroke-linejoin="miter" d="M 44.997954 -0.0024525 L 415.258418 -0.0024525 C 440.112588 -0.0024525 460.258424 20.148592 460.258424 44.997553 L 460.258424 141.362149 C 460.258424 166.211111 440.112588 186.356947 415.258418 186.356947 L 44.997954 186.356947 C 20.148992 186.356947 -0.00205208 166.211111 -0.00205208 141.362149 L -0.00205208 44.997553 C -0.00205208 20.148592 20.148992 -0.0024525 44.997954 -0.0024525 Z M 44.997954 -0.0024525 " stroke="#4e6766" stroke-width="10" stroke-opacity="1" stroke-miterlimit="4"/></g></g><g fill="#4e6766" fill-opacity="1"><g transform="translate(54.77354, 226.595097)"><g><path d="M 3.953125 0 L 3.953125 -1.125 L 6.328125 -1.125 C 8.972656 -1.125 11.03125 -1.726562 12.5 -2.9375 C 13.96875 -4.144531 14.703125 -6.179688 14.703125 -9.046875 L 14.703125 -72.03125 C 14.703125 -74.75 13.96875 -76.691406 12.5 -77.859375 C 11.03125 -79.023438 8.972656 -79.609375 6.328125 -79.609375 L 3.953125 -79.609375 L 3.953125 -80.734375 L 38.5625 -80.734375 L 38.5625 -79.609375 L 36.1875 -79.609375 C 33.550781 -79.609375 31.515625 -79.003906 30.078125 -77.796875 C 28.648438 -76.585938 27.9375 -74.585938 27.9375 -71.796875 L 27.9375 -1.125 L 47.609375 -1.125 C 51.753906 -1.125 55.066406 -1.726562 57.546875 -2.9375 C 60.035156 -4.144531 61.898438 -6.125 63.140625 -8.875 C 64.390625 -11.625 65.164062 -15.410156 65.46875 -20.234375 L 65.8125 -24.53125 L 66.9375 -24.53125 L 66.15625 0 Z M 3.953125 0 "/></g></g></g><g fill="#4e6766" fill-opacity="1"><g transform="translate(137.205694, 226.595097)"><g><path d="M 35.046875 0 L 9.15625 -73.734375 C 8.332031 -75.992188 7.316406 -77.535156 6.109375 -78.359375 C 4.898438 -79.191406 3.316406 -79.609375 1.359375 -79.609375 L 0 -79.609375 L 0 -80.734375 L 32.796875 -80.734375 L 32.796875 -79.609375 L 28.953125 -79.609375 C 26.910156 -79.609375 25.34375 -79.304688 24.25 -78.703125 C 23.15625 -78.097656 22.609375 -77.003906 22.609375 -75.421875 C 22.609375 -74.066406 22.988281 -72.332031 23.75 -70.21875 L 37.546875 -30.078125 C 40.179688 -22.535156 42.253906 -15.789062 43.765625 -9.84375 C 44.585938 -12.625 45.523438 -15.710938 46.578125 -19.109375 C 47.640625 -22.503906 48.660156 -25.707031 49.640625 -28.71875 L 62.640625 -69.4375 C 63.472656 -71.769531 63.890625 -73.613281 63.890625 -74.96875 C 63.890625 -76.707031 63.304688 -77.914062 62.140625 -78.59375 C 60.972656 -79.269531 59.101562 -79.609375 56.53125 -79.609375 L 49.640625 -79.609375 L 49.640625 -80.734375 L 77 -80.734375 L 77 -79.609375 L 73.15625 -79.609375 C 70.96875 -79.609375 69.234375 -78.984375 67.953125 -77.734375 C 66.671875 -76.492188 65.539062 -74.253906 64.5625 -71.015625 L 41.609375 0 Z M 35.046875 0 "/></g></g></g><g fill="#4e6766" fill-opacity="1"><g transform="translate(225.178493, 226.595097)"><g><path d="M 3.953125 0 L 3.953125 -1.125 L 9.5 -1.125 C 12.0625 -1.125 14.078125 -1.726562 15.546875 -2.9375 C 17.015625 -4.144531 17.75 -6.144531 17.75 -8.9375 L 17.75 -72.140625 C 17.75 -74.785156 17.015625 -76.691406 15.546875 -77.859375 C 14.078125 -79.023438 12.0625 -79.609375 9.5 -79.609375 L 3.953125 -79.609375 L 3.953125 -80.734375 L 29.171875 -80.734375 L 56.421875 -14.46875 L 79.828125 -80.734375 L 102.5625 -80.734375 L 102.5625 -79.609375 L 100.1875 -79.609375 C 97.46875 -79.609375 95.390625 -79.003906 93.953125 -77.796875 C 92.523438 -76.585938 91.8125 -74.550781 91.8125 -71.6875 L 91.8125 -9.046875 C 91.8125 -6.179688 92.523438 -4.144531 93.953125 -2.9375 C 95.390625 -1.726562 97.46875 -1.125 100.1875 -1.125 L 102.5625 -1.125 L 102.5625 0 L 70.78125 0 L 70.78125 -1.125 L 71.359375 -1.125 C 73.765625 -1.125 75.664062 -1.707031 77.0625 -2.875 C 78.457031 -4.050781 79.15625 -6.03125 79.15625 -8.8125 L 79.15625 -75.3125 L 52.6875 0 L 49.1875 0 L 18.890625 -74.0625 L 18.890625 -9.046875 C 18.890625 -6.179688 19.640625 -4.144531 21.140625 -2.9375 C 22.648438 -1.726562 24.914062 -1.125 27.9375 -1.125 L 30.640625 -1.125 L 30.640625 0 Z M 3.953125 0 "/></g></g></g><g clip-path="url(#9d80c2be8f)"><g clip-path="url(#e697c9b157)"><path stroke-linecap="butt" transform="matrix(0.75, 0, 0, 0.75, 17.149976, 110.779183)" fill="none" stroke-linejoin="miter" d="M 44.997954 -0.0024525 L 415.258419 -0.0024525 C 440.112589 -0.0024525 460.258424 20.148592 460.258424 44.997553 L 460.258424 141.362149 C 460.258424 166.211111 440.112589 186.356947 415.258419 186.356947 L 44.997954 186.356947 C 20.148992 186.356947 -0.00205189 166.211111 -0.00205189 141.362149 L -0.00205189 44.997553 C -0.00205189 20.148592 20.148992 -0.0024525 44.997954 -0.0024525 Z M 44.997954 -0.0024525 " stroke="#4e6766" stroke-width="10" stroke-opacity="1" stroke-miterlimit="4"/></g></g><g clip-path="url(#cbb19eb4c6)"><path fill="#fff6ea" d="M 29.296875 230.324219 L 255.71875 230.324219 L 255.71875 264.222656 L 29.296875 264.222656 Z M 29.296875 230.324219 " fill-opacity="1" fill-rule="nonzero"/></g><g clip-path="url(#fe01fce556)"><path fill="#4e6766" d="M 230.910156 239.761719 C 230.050781 239.761719 229.273438 240.28125 228.941406 241.078125 C 227.652344 241.476562 226.773438 242.671875 226.773438 244.023438 C 226.773438 244.574219 226.921875 245.117188 227.207031 245.59375 C 227.199219 245.605469 227.195312 245.621094 227.1875 245.632812 C 227.179688 245.652344 227.171875 245.667969 227.164062 245.683594 L 227.167969 245.683594 C 227.039062 245.984375 226.96875 246.304688 226.96875 246.632812 C 226.96875 247.390625 227.328125 248.101562 227.9375 248.546875 C 227.914062 248.667969 227.902344 248.792969 227.902344 248.917969 C 227.902344 249.804688 228.519531 250.574219 229.382812 250.769531 C 229.667969 251.492188 230.371094 251.972656 231.148438 251.972656 C 231.820312 251.972656 232.40625 251.621094 232.746094 251.089844 C 233.082031 251.632812 233.671875 252 234.355469 252 C 235.136719 252 235.835938 251.523438 236.121094 250.796875 C 236.128906 250.792969 236.136719 250.789062 236.144531 250.789062 C 236.15625 250.785156 236.167969 250.777344 236.183594 250.777344 C 236.300781 250.746094 236.417969 250.703125 236.523438 250.648438 C 236.554688 250.636719 236.582031 250.621094 236.613281 250.605469 C 236.71875 250.546875 236.816406 250.480469 236.90625 250.40625 C 236.917969 250.394531 236.933594 250.390625 236.945312 250.378906 C 237.050781 250.285156 237.144531 250.183594 237.226562 250.074219 C 237.230469 250.066406 237.238281 250.058594 237.242188 250.054688 C 237.242188 250.050781 237.242188 250.050781 237.238281 250.050781 C 237.46875 249.734375 237.605469 249.355469 237.605469 248.941406 C 237.605469 248.820312 237.589844 248.695312 237.566406 248.574219 C 238.175781 248.125 238.539062 247.414062 238.539062 246.660156 C 238.539062 246.300781 238.457031 245.945312 238.300781 245.621094 C 238.300781 245.617188 238.304688 245.613281 238.304688 245.609375 C 238.347656 245.535156 238.386719 245.457031 238.421875 245.378906 C 238.457031 245.308594 238.488281 245.234375 238.519531 245.160156 C 238.546875 245.089844 238.570312 245.019531 238.59375 244.945312 C 238.628906 244.832031 238.65625 244.714844 238.675781 244.59375 C 238.683594 244.558594 238.695312 244.527344 238.703125 244.488281 L 238.699219 244.488281 C 238.71875 244.34375 238.730469 244.195312 238.730469 244.046875 C 238.730469 242.699219 237.851562 241.507812 236.5625 241.105469 C 236.230469 240.308594 235.453125 239.789062 234.59375 239.789062 C 233.8125 239.789062 233.132812 240.214844 232.761719 240.847656 C 232.390625 240.203125 231.707031 239.761719 230.910156 239.761719 Z M 230.910156 240.355469 C 231.707031 240.355469 232.433594 241.058594 232.457031 241.851562 C 232.457031 241.851562 232.457031 241.855469 232.457031 241.855469 C 232.457031 241.867188 232.457031 241.875 232.460938 241.886719 C 232.460938 241.902344 232.457031 241.914062 232.457031 241.929688 C 232.457031 241.933594 232.457031 241.933594 232.457031 241.9375 C 232.457031 241.941406 232.457031 241.941406 232.457031 241.945312 C 232.457031 241.949219 232.457031 241.957031 232.457031 241.960938 L 232.457031 248.695312 C 232.117188 248.371094 231.65625 248.171875 231.148438 248.171875 C 230.964844 248.171875 230.78125 248.195312 230.605469 248.25 C 230.480469 248.285156 230.390625 248.402344 230.390625 248.535156 C 230.390625 248.699219 230.523438 248.832031 230.6875 248.832031 C 230.71875 248.832031 230.75 248.828125 230.78125 248.816406 C 230.898438 248.78125 231.023438 248.765625 231.148438 248.765625 C 231.835938 248.765625 232.40625 249.300781 232.449219 249.988281 L 232.457031 249.988281 L 232.457031 250.015625 C 232.457031 250.023438 232.457031 250.027344 232.460938 250.035156 L 232.460938 250.042969 C 232.457031 250.0625 232.457031 250.082031 232.457031 250.101562 C 232.457031 250.109375 232.457031 250.113281 232.457031 250.121094 C 232.457031 250.121094 232.457031 250.121094 232.457031 250.125 C 232.433594 250.792969 231.820312 251.382812 231.148438 251.382812 C 230.628906 251.382812 230.121094 251.039062 229.933594 250.554688 C 229.859375 250.371094 229.703125 250.238281 229.511719 250.195312 C 228.9375 250.066406 228.492188 249.507812 228.492188 248.917969 C 228.492188 248.832031 228.5 248.746094 228.515625 248.664062 C 228.558594 248.4375 228.472656 248.207031 228.285156 248.074219 C 227.835938 247.742188 227.558594 247.191406 227.558594 246.632812 C 227.558594 246.371094 227.617188 246.113281 227.726562 245.878906 C 228.019531 245.257812 228.644531 244.855469 229.328125 244.851562 C 229.332031 244.851562 229.335938 244.851562 229.339844 244.851562 C 229.777344 244.851562 230.203125 245.015625 230.53125 245.3125 C 230.585938 245.367188 230.660156 245.398438 230.738281 245.398438 C 230.902344 245.398438 231.035156 245.265625 231.035156 245.101562 C 231.035156 245.015625 231 244.929688 230.933594 244.875 C 230.496094 244.480469 229.929688 244.257812 229.339844 244.257812 L 229.332031 244.257812 C 228.652344 244.261719 228.023438 244.554688 227.582031 245.042969 C 227.441406 244.722656 227.363281 244.375 227.363281 244.023438 C 227.363281 242.96875 228.109375 241.957031 229.117188 241.640625 C 229.285156 241.589844 229.417969 241.46875 229.484375 241.304688 C 229.71875 240.746094 230.308594 240.355469 230.910156 240.355469 Z M 234.59375 240.382812 C 235.199219 240.382812 235.785156 240.773438 236.019531 241.332031 C 236.085938 241.492188 236.222656 241.613281 236.386719 241.667969 C 237.394531 241.980469 238.140625 242.992188 238.140625 244.046875 C 238.140625 244.214844 238.121094 244.382812 238.085938 244.546875 C 238.066406 244.648438 238.035156 244.75 238.003906 244.847656 C 237.992188 244.886719 237.980469 244.921875 237.964844 244.960938 C 237.921875 245.070312 237.871094 245.179688 237.8125 245.28125 C 237.804688 245.292969 237.800781 245.308594 237.792969 245.320312 C 237.355469 246.0625 236.550781 246.546875 235.648438 246.546875 C 235.621094 246.546875 235.59375 246.546875 235.570312 246.546875 C 235.5625 246.546875 235.554688 246.546875 235.546875 246.546875 C 235.382812 246.546875 235.25 246.679688 235.25 246.84375 C 235.25 247.003906 235.382812 247.136719 235.542969 247.136719 C 235.578125 247.136719 235.613281 247.140625 235.648438 247.140625 C 236.519531 247.140625 237.308594 246.765625 237.875 246.171875 C 237.917969 246.332031 237.949219 246.492188 237.949219 246.65625 C 237.949219 247.214844 237.667969 247.765625 237.21875 248.097656 C 237.035156 248.234375 236.945312 248.464844 236.992188 248.6875 C 237.007812 248.773438 237.015625 248.859375 237.015625 248.941406 C 237.015625 249.222656 236.910156 249.496094 236.742188 249.722656 C 236.714844 249.757812 236.683594 249.792969 236.652344 249.828125 C 236.613281 249.871094 236.570312 249.910156 236.523438 249.949219 C 236.464844 249.996094 236.40625 250.039062 236.34375 250.078125 C 236.328125 250.085938 236.3125 250.09375 236.296875 250.101562 C 236.113281 250.195312 235.914062 250.25 235.703125 250.25 C 235.261719 250.25 234.851562 250.023438 234.609375 249.652344 C 234.554688 249.566406 234.460938 249.515625 234.363281 249.515625 C 234.199219 249.515625 234.066406 249.648438 234.066406 249.8125 C 234.066406 249.875 234.082031 249.933594 234.117188 249.984375 C 234.421875 250.445312 234.90625 250.746094 235.441406 250.820312 C 235.199219 251.175781 234.785156 251.410156 234.355469 251.410156 C 233.6875 251.410156 233.074219 250.816406 233.050781 250.148438 C 233.050781 250.144531 233.046875 250.144531 233.046875 250.140625 L 233.046875 250.136719 C 233.046875 250.132812 233.046875 250.132812 233.046875 250.128906 C 233.046875 250.109375 233.050781 250.089844 233.050781 250.074219 C 233.050781 250.0625 233.050781 250.058594 233.050781 250.046875 C 233.050781 250.046875 233.050781 250.042969 233.050781 250.039062 L 233.050781 241.988281 C 233.050781 241.980469 233.050781 241.976562 233.050781 241.972656 C 233.050781 241.960938 233.046875 241.953125 233.046875 241.941406 C 233.046875 241.929688 233.050781 241.914062 233.050781 241.902344 C 233.050781 241.898438 233.050781 241.894531 233.050781 241.890625 C 233.050781 241.890625 233.050781 241.886719 233.050781 241.882812 C 233.050781 241.882812 233.050781 241.878906 233.050781 241.878906 C 233.074219 241.085938 233.800781 240.382812 234.59375 240.382812 Z M 231.113281 241.804688 C 231.003906 241.804688 230.902344 241.863281 230.851562 241.960938 C 230.769531 242.125 230.660156 242.273438 230.527344 242.394531 C 230.25 242.644531 229.851562 242.777344 229.476562 242.75 C 229.464844 242.746094 229.457031 242.746094 229.445312 242.746094 C 229.28125 242.746094 229.148438 242.878906 229.148438 243.042969 C 229.148438 243.199219 229.265625 243.328125 229.417969 243.34375 C 229.964844 243.390625 230.519531 243.207031 230.925781 242.839844 C 231.109375 242.675781 231.257812 242.472656 231.367188 242.253906 C 231.371094 242.25 231.371094 242.25 231.371094 242.25 C 231.371094 242.25 231.375 242.246094 231.375 242.242188 C 231.375 242.242188 231.378906 242.238281 231.378906 242.234375 C 231.402344 242.191406 231.410156 242.148438 231.410156 242.101562 C 231.410156 241.9375 231.277344 241.804688 231.113281 241.804688 Z M 234.617188 242.441406 C 234.5 242.453125 234.398438 242.53125 234.363281 242.652344 C 234.347656 242.695312 234.34375 242.742188 234.351562 242.789062 C 234.355469 242.792969 234.355469 242.796875 234.355469 242.800781 C 234.355469 242.800781 234.355469 242.800781 234.355469 242.804688 C 234.355469 242.796875 234.355469 242.796875 234.359375 242.8125 C 234.359375 242.808594 234.359375 242.8125 234.359375 242.816406 C 234.410156 243.101562 234.507812 243.378906 234.65625 243.625 C 234.992188 244.179688 235.554688 244.574219 236.183594 244.707031 C 236.335938 244.738281 236.488281 244.644531 236.53125 244.496094 C 236.578125 244.335938 236.492188 244.171875 236.332031 244.125 C 236.320312 244.121094 236.3125 244.117188 236.300781 244.117188 C 236.300781 244.117188 236.300781 244.113281 236.300781 244.113281 C 235.839844 244.011719 235.417969 243.714844 235.175781 243.3125 C 235.058594 243.121094 234.980469 242.902344 234.941406 242.679688 C 234.921875 242.570312 234.839844 242.484375 234.734375 242.453125 C 234.695312 242.441406 234.65625 242.4375 234.617188 242.441406 Z M 221.886719 244.621094 C 221.847656 244.621094 221.8125 244.625 221.777344 244.632812 C 221.671875 244.65625 221.570312 244.714844 221.488281 244.796875 C 221.289062 245.007812 221.1875 245.335938 221.082031 245.921875 C 220.871094 247.09375 220.726562 249.355469 220.660156 250.566406 C 220.628906 251.171875 220.613281 251.519531 220.652344 251.832031 C 220.695312 252.140625 220.796875 252.382812 220.960938 252.722656 C 221.285156 253.394531 221.898438 254.578125 222.214844 255.210938 C 222.371094 255.527344 222.460938 255.722656 222.605469 255.902344 C 222.75 256.082031 222.933594 256.207031 223.210938 256.363281 C 223.765625 256.671875 224.8125 257.183594 225.566406 257.546875 C 226.316406 257.910156 226.761719 258.132812 226.957031 258.300781 C 227.160156 258.46875 227.183594 258.589844 227.25 258.839844 C 227.3125 259.078125 227.378906 259.339844 227.445312 259.609375 C 227.445312 259.613281 227.445312 259.617188 227.449219 259.621094 C 227.449219 259.621094 227.449219 259.625 227.449219 259.632812 L 227.449219 259.636719 C 227.476562 259.714844 227.53125 259.789062 227.601562 259.835938 C 227.671875 259.882812 227.761719 259.902344 227.847656 259.886719 C 227.847656 259.886719 227.851562 259.886719 227.851562 259.886719 C 228.488281 259.839844 229.128906 259.753906 229.757812 259.554688 C 230.246094 259.394531 230.726562 259.167969 231.140625 258.84375 C 231.34375 258.6875 231.53125 258.496094 231.691406 258.296875 L 231.6875 258.300781 C 231.773438 258.222656 231.820312 258.097656 231.800781 257.980469 C 231.796875 257.960938 231.792969 257.941406 231.789062 257.921875 C 231.789062 257.917969 231.789062 257.917969 231.785156 257.914062 C 231.667969 257.570312 231.554688 257.238281 231.484375 256.984375 C 231.390625 256.632812 231.363281 256.394531 231.277344 255.886719 C 231.191406 255.378906 231.054688 254.59375 230.683594 253.964844 C 230.3125 253.335938 229.730469 252.933594 229.097656 252.632812 C 228.585938 252.394531 228.042969 252.21875 227.527344 252.007812 C 227.347656 251.332031 227.15625 250.648438 226.914062 249.957031 C 226.613281 249.09375 226.246094 248.230469 225.871094 247.667969 C 225.824219 247.597656 225.777344 247.535156 225.726562 247.472656 C 225.679688 247.410156 225.632812 247.355469 225.585938 247.304688 C 225.304688 247 225.035156 246.851562 224.820312 246.785156 C 224.71875 246.753906 224.609375 246.734375 224.5 246.75 C 224.460938 246.753906 224.421875 246.761719 224.386719 246.777344 C 224.363281 246.785156 224.351562 246.796875 224.332031 246.808594 C 224.085938 246.203125 223.851562 245.820312 223.589844 245.625 C 223.421875 245.496094 223.234375 245.449219 223.066406 245.476562 C 222.980469 245.492188 222.914062 245.523438 222.859375 245.558594 C 222.679688 245.105469 222.449219 244.84375 222.199219 244.714844 C 222.125 244.671875 222.019531 244.621094 221.886719 244.621094 Z M 243.621094 244.621094 C 243.484375 244.621094 243.378906 244.671875 243.304688 244.710938 C 243.054688 244.84375 242.828125 245.105469 242.648438 245.558594 C 242.589844 245.523438 242.527344 245.492188 242.441406 245.476562 C 242.273438 245.449219 242.085938 245.496094 241.914062 245.625 C 241.652344 245.820312 241.421875 246.203125 241.171875 246.808594 C 241.15625 246.796875 241.140625 246.785156 241.117188 246.777344 C 241.082031 246.761719 241.042969 246.753906 241.007812 246.75 C 240.894531 246.734375 240.789062 246.753906 240.683594 246.785156 C 240.472656 246.851562 240.199219 247 239.917969 247.304688 C 239.871094 247.355469 239.824219 247.410156 239.777344 247.472656 C 239.730469 247.53125 239.683594 247.597656 239.636719 247.667969 C 239.257812 248.230469 238.890625 249.09375 238.589844 249.957031 C 238.347656 250.648438 238.160156 251.328125 237.976562 252.007812 C 237.460938 252.214844 236.921875 252.394531 236.410156 252.632812 C 235.777344 252.929688 235.195312 253.335938 234.824219 253.964844 C 234.453125 254.59375 234.316406 255.378906 234.230469 255.882812 C 234.144531 256.394531 234.117188 256.632812 234.019531 256.980469 C 233.953125 257.238281 233.839844 257.566406 233.71875 257.914062 C 233.71875 257.914062 233.71875 257.917969 233.71875 257.921875 C 233.710938 257.941406 233.707031 257.960938 233.703125 257.980469 C 233.6875 258.097656 233.730469 258.222656 233.816406 258.300781 L 233.8125 258.296875 C 233.976562 258.496094 234.160156 258.683594 234.363281 258.84375 C 234.78125 259.164062 235.257812 259.394531 235.75 259.554688 C 236.375 259.753906 237.019531 259.839844 237.652344 259.886719 C 237.65625 259.886719 237.65625 259.886719 237.660156 259.886719 C 237.742188 259.898438 237.832031 259.882812 237.902344 259.835938 C 237.976562 259.789062 238.03125 259.714844 238.054688 259.632812 C 238.058594 259.625 238.058594 259.621094 238.058594 259.621094 C 238.058594 259.617188 238.0625 259.613281 238.0625 259.609375 L 238.0625 259.605469 C 238.128906 259.339844 238.195312 259.078125 238.257812 258.839844 C 238.320312 258.589844 238.347656 258.46875 238.546875 258.296875 C 238.742188 258.132812 239.1875 257.910156 239.941406 257.546875 C 240.691406 257.183594 241.742188 256.671875 242.296875 256.359375 C 242.574219 256.207031 242.757812 256.082031 242.902344 255.902344 C 243.042969 255.722656 243.132812 255.527344 243.289062 255.210938 C 243.605469 254.578125 244.222656 253.394531 244.546875 252.71875 C 244.707031 252.382812 244.808594 252.140625 244.851562 251.832031 C 244.894531 251.519531 244.878906 251.167969 244.847656 250.566406 C 244.78125 249.355469 244.632812 247.09375 244.425781 245.917969 C 244.320312 245.335938 244.214844 245.007812 244.015625 244.796875 C 243.9375 244.710938 243.835938 244.65625 243.726562 244.632812 C 243.691406 244.625 243.65625 244.621094 243.621094 244.621094 Z M 221.914062 245.234375 C 221.914062 245.234375 221.917969 245.234375 221.917969 245.234375 C 221.9375 245.230469 221.953125 245.234375 221.984375 245.25 C 222.054688 245.292969 222.105469 245.351562 222.179688 245.460938 C 222.261719 245.585938 222.351562 245.792969 222.433594 246.121094 C 222.527344 246.488281 222.605469 247.03125 222.679688 247.625 C 222.679688 247.625 222.679688 247.625 222.683594 247.625 C 222.683594 247.636719 222.6875 247.640625 222.6875 247.644531 C 222.785156 248.402344 222.910156 249.339844 223.046875 250.375 C 222.949219 250.40625 222.855469 250.441406 222.769531 250.503906 C 222.621094 250.613281 222.476562 250.820312 222.503906 251.074219 C 222.53125 251.3125 222.667969 251.542969 222.921875 251.835938 C 223.402344 252.394531 224.347656 253.203125 225.3125 254.03125 C 225.316406 254.03125 225.320312 254.035156 225.324219 254.039062 C 225.386719 254.09375 225.476562 254.121094 225.558594 254.105469 C 225.632812 254.09375 225.707031 254.054688 225.75 253.992188 C 225.796875 253.929688 225.816406 253.851562 225.804688 253.773438 C 225.792969 253.710938 225.761719 253.648438 225.714844 253.605469 C 225.714844 253.605469 225.714844 253.601562 225.714844 253.601562 C 225.710938 253.597656 225.707031 253.597656 225.699219 253.589844 C 225.699219 253.589844 225.699219 253.589844 225.695312 253.589844 L 225.695312 253.585938 C 224.726562 252.757812 223.777344 251.933594 223.363281 251.457031 C 223.257812 251.332031 223.1875 251.230469 223.144531 251.152344 C 223.136719 251.144531 223.128906 251.128906 223.121094 251.113281 C 223.117188 251.097656 223.113281 251.082031 223.113281 251.082031 C 223.113281 251.082031 223.113281 251.078125 223.113281 251.078125 C 223.109375 251.039062 223.117188 251.011719 223.136719 250.984375 C 223.160156 250.960938 223.195312 250.9375 223.242188 250.917969 C 223.359375 250.878906 223.53125 250.855469 223.773438 250.894531 C 224.117188 250.949219 224.585938 251.125 225.113281 251.40625 C 225.640625 251.683594 226.25 252.082031 226.921875 252.386719 C 227.589844 252.695312 228.277344 252.894531 228.851562 253.164062 C 229.28125 253.367188 229.652344 253.605469 229.933594 253.917969 C 229.976562 253.972656 230.023438 254.027344 230.0625 254.085938 C 230.105469 254.140625 230.144531 254.199219 230.179688 254.261719 C 230.472656 254.753906 230.613281 255.484375 230.699219 255.980469 C 230.78125 256.480469 230.820312 256.746094 230.921875 257.128906 C 230.921875 257.132812 230.925781 257.136719 230.925781 257.140625 L 230.921875 257.136719 C 230.992188 257.386719 231.089844 257.683594 231.195312 257.988281 C 231.070312 258.132812 230.933594 258.265625 230.78125 258.382812 C 230.429688 258.65625 230.019531 258.855469 229.582031 258.996094 C 229.066406 259.160156 228.523438 259.242188 227.96875 259.292969 C 227.914062 259.085938 227.863281 258.875 227.8125 258.6875 C 227.75 258.433594 227.652344 258.121094 227.339844 257.851562 C 227.027344 257.589844 226.570312 257.382812 225.820312 257.019531 C 225.070312 256.65625 224.011719 256.140625 223.496094 255.851562 C 223.234375 255.707031 223.136719 255.636719 223.058594 255.539062 C 222.980469 255.441406 222.898438 255.269531 222.738281 254.949219 C 222.417969 254.308594 221.800781 253.121094 221.488281 252.464844 C 221.332031 252.136719 221.261719 251.980469 221.230469 251.75 C 221.199219 251.523438 221.207031 251.195312 221.242188 250.597656 C 221.304688 249.394531 221.460938 247.113281 221.65625 246.019531 C 221.703125 245.75 221.757812 245.550781 221.804688 245.414062 C 221.828125 245.355469 221.851562 245.296875 221.871094 245.261719 C 221.878906 245.246094 221.894531 245.234375 221.914062 245.234375 Z M 243.589844 245.234375 C 243.589844 245.234375 243.59375 245.234375 243.59375 245.234375 C 243.609375 245.238281 243.625 245.246094 243.632812 245.261719 C 243.652344 245.296875 243.679688 245.355469 243.699219 245.414062 C 243.746094 245.550781 243.800781 245.75 243.847656 246.019531 C 244.042969 247.113281 244.199219 249.394531 244.265625 250.597656 C 244.296875 251.199219 244.304688 251.523438 244.273438 251.75 C 244.242188 251.980469 244.171875 252.140625 244.015625 252.46875 C 243.703125 253.121094 243.085938 254.308594 242.765625 254.949219 C 242.605469 255.269531 242.523438 255.445312 242.445312 255.539062 C 242.367188 255.640625 242.269531 255.707031 242.011719 255.851562 C 241.492188 256.144531 240.4375 256.660156 239.683594 257.019531 C 238.933594 257.382812 238.476562 257.589844 238.167969 257.851562 C 237.851562 258.121094 237.757812 258.4375 237.691406 258.6875 C 237.640625 258.875 237.589844 259.085938 237.539062 259.292969 C 236.980469 259.242188 236.4375 259.164062 235.925781 258.996094 C 235.488281 258.855469 235.074219 258.65625 234.722656 258.382812 C 234.570312 258.265625 234.433594 258.132812 234.3125 257.988281 C 234.414062 257.683594 234.515625 257.386719 234.582031 257.136719 L 234.578125 257.140625 C 234.578125 257.136719 234.582031 257.132812 234.582031 257.132812 C 234.6875 256.746094 234.722656 256.480469 234.808594 255.984375 C 234.890625 255.484375 235.03125 254.753906 235.324219 254.261719 C 235.359375 254.199219 235.398438 254.140625 235.441406 254.085938 C 235.484375 254.027344 235.527344 253.972656 235.574219 253.921875 C 235.855469 253.605469 236.226562 253.367188 236.65625 253.164062 C 237.230469 252.894531 237.914062 252.695312 238.585938 252.386719 C 239.253906 252.082031 239.867188 251.683594 240.394531 251.40625 C 240.921875 251.125 241.390625 250.953125 241.730469 250.894531 C 241.972656 250.855469 242.144531 250.878906 242.261719 250.917969 C 242.3125 250.9375 242.347656 250.960938 242.367188 250.984375 C 242.390625 251.011719 242.398438 251.039062 242.390625 251.078125 C 242.390625 251.078125 242.390625 251.082031 242.390625 251.082031 C 242.390625 251.082031 242.386719 251.097656 242.382812 251.113281 C 242.375 251.128906 242.367188 251.144531 242.363281 251.152344 C 242.320312 251.230469 242.25 251.332031 242.140625 251.457031 C 241.730469 251.9375 240.777344 252.757812 239.8125 253.585938 L 239.808594 253.589844 C 239.808594 253.589844 239.808594 253.589844 239.804688 253.589844 C 239.800781 253.597656 239.796875 253.601562 239.792969 253.605469 L 239.789062 253.605469 C 239.742188 253.648438 239.710938 253.710938 239.703125 253.777344 C 239.691406 253.851562 239.710938 253.929688 239.753906 253.992188 C 239.800781 254.054688 239.871094 254.097656 239.949219 254.109375 C 240.03125 254.121094 240.117188 254.09375 240.183594 254.039062 C 240.1875 254.035156 240.191406 254.03125 240.191406 254.03125 C 241.15625 253.203125 242.105469 252.394531 242.585938 251.835938 C 242.835938 251.546875 242.972656 251.3125 243 251.074219 C 243.027344 250.820312 242.882812 250.617188 242.738281 250.507812 C 242.652344 250.445312 242.554688 250.40625 242.457031 250.375 C 242.597656 249.34375 242.722656 248.402344 242.816406 247.648438 C 242.820312 247.640625 242.820312 247.636719 242.824219 247.625 C 242.898438 247.03125 242.976562 246.492188 243.070312 246.121094 C 243.152344 245.792969 243.242188 245.589844 243.328125 245.460938 C 243.398438 245.351562 243.453125 245.292969 243.519531 245.253906 C 243.554688 245.234375 243.566406 245.230469 243.589844 245.234375 Z M 223.160156 246.046875 C 223.160156 246.046875 223.171875 246.050781 223.179688 246.050781 L 223.179688 246.054688 C 223.191406 246.058594 223.214844 246.070312 223.242188 246.089844 C 223.269531 246.109375 223.316406 246.15625 223.367188 246.222656 C 223.421875 246.289062 223.480469 246.378906 223.546875 246.492188 C 223.675781 246.722656 223.828125 247.050781 223.980469 247.5 C 224.25 248.277344 224.546875 249.441406 224.847656 250.636719 C 224.496094 250.484375 224.164062 250.367188 223.867188 250.320312 C 223.78125 250.304688 223.703125 250.300781 223.625 250.300781 C 223.433594 248.890625 223.25 247.507812 223.167969 246.777344 C 223.125 246.414062 223.113281 246.183594 223.117188 246.09375 C 223.117188 246.070312 223.132812 246.054688 223.15625 246.050781 C 223.160156 246.046875 223.160156 246.046875 223.160156 246.046875 Z M 242.347656 246.046875 C 242.347656 246.046875 242.34375 246.046875 242.347656 246.050781 C 242.347656 246.050781 242.351562 246.050781 242.351562 246.050781 C 242.371094 246.054688 242.386719 246.070312 242.390625 246.09375 C 242.390625 246.183594 242.378906 246.414062 242.339844 246.777344 C 242.253906 247.507812 242.070312 248.890625 241.878906 250.300781 C 241.804688 250.304688 241.726562 250.304688 241.640625 250.320312 C 241.34375 250.367188 241.011719 250.484375 240.660156 250.636719 C 240.957031 249.441406 241.257812 248.277344 241.523438 247.5 C 241.679688 247.050781 241.832031 246.722656 241.960938 246.496094 C 242.027344 246.378906 242.085938 246.289062 242.136719 246.222656 C 242.1875 246.15625 242.234375 246.113281 242.265625 246.089844 C 242.289062 246.070312 242.3125 246.058594 242.328125 246.054688 L 242.328125 246.050781 C 242.335938 246.050781 242.34375 246.046875 242.347656 246.046875 Z M 224.757812 247.394531 C 224.765625 247.394531 224.777344 247.398438 224.785156 247.402344 C 224.898438 247.460938 225.050781 247.574219 225.214844 247.769531 C 225.273438 247.835938 225.328125 247.910156 225.386719 247.996094 C 225.703125 248.46875 226.074219 249.3125 226.363281 250.148438 C 226.542969 250.65625 226.6875 251.167969 226.832031 251.683594 C 226.382812 251.453125 225.949219 251.195312 225.53125 250.96875 C 225.496094 250.824219 225.460938 250.6875 225.425781 250.542969 C 225.425781 250.546875 225.425781 250.546875 225.425781 250.539062 C 225.425781 250.539062 225.425781 250.539062 225.421875 250.539062 C 225.222656 249.65625 225.011719 248.730469 224.886719 248.195312 C 224.804688 247.84375 224.746094 247.605469 224.714844 247.453125 C 224.710938 247.425781 224.730469 247.398438 224.757812 247.394531 Z M 240.75 247.394531 C 240.777344 247.398438 240.792969 247.425781 240.789062 247.453125 C 240.757812 247.605469 240.703125 247.84375 240.617188 248.195312 C 240.492188 248.730469 240.285156 249.65625 240.082031 250.539062 C 240.078125 250.546875 240.078125 250.546875 240.078125 250.542969 C 240.042969 250.6875 240.007812 250.824219 239.972656 250.96875 C 239.554688 251.195312 239.121094 251.453125 238.675781 251.683594 C 238.816406 251.167969 238.964844 250.65625 239.140625 250.148438 C 239.433594 249.3125 239.800781 248.46875 240.117188 247.996094 C 240.175781 247.910156 240.234375 247.835938 240.289062 247.769531 C 240.453125 247.574219 240.605469 247.460938 240.71875 247.402344 C 240.730469 247.398438 240.738281 247.394531 240.75 247.394531 Z M 240.75 247.394531 " fill-opacity="1" fill-rule="nonzero"/></g><g fill="#4d473f" fill-opacity="1"><g transform="translate(36.548912, 252.936955)"><g><path d="M 9.484375 -2.828125 C 9.140625 -1.929688 8.578125 -1.21875 7.796875 -0.6875 C 7.015625 -0.132812 6.148438 0.140625 5.203125 0.140625 C 3.929688 0.140625 2.84375 -0.332031 1.9375 -1.28125 C 1.050781 -2.195312 0.609375 -3.300781 0.609375 -4.59375 C 0.609375 -5.238281 0.726562 -5.847656 0.96875 -6.421875 C 1.195312 -6.992188 1.519531 -7.5 1.9375 -7.9375 C 2.84375 -8.875 3.929688 -9.34375 5.203125 -9.34375 C 6.148438 -9.34375 7.007812 -9.078125 7.78125 -8.546875 C 8.5625 -8.003906 9.125 -7.296875 9.46875 -6.421875 L 8.421875 -6.421875 C 7.921875 -7.328125 7.179688 -7.929688 6.203125 -8.234375 C 5.867188 -8.328125 5.492188 -8.375 5.078125 -8.375 C 4.648438 -8.375 4.210938 -8.269531 3.765625 -8.0625 C 3.328125 -7.851562 2.945312 -7.582031 2.625 -7.25 C 1.914062 -6.507812 1.5625 -5.625 1.5625 -4.59375 C 1.5625 -3.570312 1.914062 -2.695312 2.625 -1.96875 C 3.332031 -1.21875 4.191406 -0.84375 5.203125 -0.84375 C 5.890625 -0.84375 6.523438 -1.023438 7.109375 -1.390625 C 7.679688 -1.742188 8.125 -2.222656 8.4375 -2.828125 Z M 9.484375 -2.828125 "/></g></g></g><g fill="#4d473f" fill-opacity="1"><g transform="translate(55.400924, 252.936955)"><g><path d="M 9.140625 -4.640625 C 9.140625 -5.679688 8.769531 -6.570312 8.03125 -7.3125 C 7.289062 -8.050781 6.394531 -8.421875 5.34375 -8.421875 C 4.300781 -8.421875 3.410156 -8.050781 2.671875 -7.3125 C 1.929688 -6.570312 1.5625 -5.679688 1.5625 -4.640625 C 1.5625 -3.585938 1.929688 -2.691406 2.671875 -1.953125 C 3.410156 -1.210938 4.300781 -0.84375 5.34375 -0.84375 C 6.394531 -0.84375 7.289062 -1.210938 8.03125 -1.953125 C 8.769531 -2.691406 9.140625 -3.585938 9.140625 -4.640625 Z M 10.09375 -4.640625 C 10.09375 -3.984375 9.96875 -3.367188 9.71875 -2.796875 C 9.46875 -2.210938 9.128906 -1.707031 8.703125 -1.28125 C 8.273438 -0.851562 7.769531 -0.515625 7.1875 -0.265625 C 6.601562 -0.015625 5.988281 0.109375 5.34375 0.109375 C 4.6875 0.109375 4.078125 -0.015625 3.515625 -0.265625 C 2.929688 -0.515625 2.425781 -0.851562 2 -1.28125 C 1.570312 -1.707031 1.234375 -2.210938 0.984375 -2.796875 C 0.734375 -3.367188 0.609375 -3.984375 0.609375 -4.640625 C 0.609375 -5.285156 0.734375 -5.898438 0.984375 -6.484375 C 1.234375 -7.054688 1.570312 -7.554688 2 -7.984375 C 2.425781 -8.410156 2.929688 -8.75 3.515625 -9 C 4.078125 -9.25 4.6875 -9.375 5.34375 -9.375 C 5.988281 -9.375 6.601562 -9.25 7.1875 -9 C 7.769531 -8.75 8.273438 -8.410156 8.703125 -7.984375 C 9.128906 -7.554688 9.46875 -7.054688 9.71875 -6.484375 C 9.96875 -5.898438 10.09375 -5.285156 10.09375 -4.640625 Z M 10.09375 -4.640625 "/></g></g></g><g fill="#4d473f" fill-opacity="1"><g transform="translate(75.06645, 252.936955)"><g><path d="M 7.6875 -3.046875 C 7.6875 -2.054688 7.363281 -1.269531 6.71875 -0.6875 C 6.101562 -0.144531 5.285156 0.125 4.265625 0.125 C 3.234375 0.125 2.410156 -0.144531 1.796875 -0.6875 C 1.140625 -1.269531 0.8125 -2.054688 0.8125 -3.046875 L 0.8125 -9.21875 L 1.765625 -9.21875 L 1.765625 -2.921875 C 1.765625 -2.222656 2.015625 -1.6875 2.515625 -1.3125 C 2.953125 -0.988281 3.535156 -0.828125 4.265625 -0.828125 C 5.390625 -0.828125 6.144531 -1.207031 6.53125 -1.96875 C 6.664062 -2.226562 6.734375 -2.546875 6.734375 -2.921875 L 6.734375 -9.21875 L 7.6875 -9.21875 Z M 7.6875 -3.046875 "/></g></g></g><g fill="#4d473f" fill-opacity="1"><g transform="translate(92.535488, 252.936955)"><g><path d="M 1.96875 -6.796875 L 1.96875 0 L 1.015625 0 L 1.015625 -9.8125 L 6.203125 -2.4375 L 6.203125 -9.21875 L 7.140625 -9.21875 L 7.140625 0.5625 Z M 1.96875 -6.796875 "/></g></g></g><g fill="#4d473f" fill-opacity="1"><g transform="translate(109.665564, 252.936955)"><g><path d="M 3.578125 -4.359375 C 1.703125 -4.785156 0.765625 -5.585938 0.765625 -6.765625 C 0.765625 -7.628906 1.066406 -8.28125 1.671875 -8.71875 C 2.273438 -9.144531 2.984375 -9.359375 3.796875 -9.359375 C 5.597656 -9.359375 6.664062 -8.6875 7 -7.34375 L 5.96875 -7.34375 C 5.789062 -8.144531 5.066406 -8.546875 3.796875 -8.546875 C 2.910156 -8.546875 2.289062 -8.28125 1.9375 -7.75 C 1.800781 -7.550781 1.734375 -7.304688 1.734375 -7.015625 C 1.734375 -6.441406 2.039062 -6.003906 2.65625 -5.703125 C 2.945312 -5.546875 3.5625 -5.34375 4.5 -5.09375 C 5.4375 -4.851562 6.117188 -4.582031 6.546875 -4.28125 C 7.140625 -3.863281 7.4375 -3.28125 7.4375 -2.53125 C 7.4375 -1.601562 7.066406 -0.898438 6.328125 -0.421875 C 5.710938 -0.0234375 4.957031 0.171875 4.0625 0.171875 C 2.007812 0.171875 0.820312 -0.601562 0.5 -2.15625 L 1.625 -2.15625 C 1.800781 -1.175781 2.613281 -0.6875 4.0625 -0.6875 C 5.082031 -0.6875 5.800781 -0.972656 6.21875 -1.546875 C 6.375 -1.773438 6.453125 -2.082031 6.453125 -2.46875 C 6.453125 -2.84375 6.304688 -3.15625 6.015625 -3.40625 C 5.585938 -3.75 4.773438 -4.066406 3.578125 -4.359375 Z M 3.578125 -4.359375 "/></g></g></g><g fill="#4d473f" fill-opacity="1"><g transform="translate(126.415994, 252.936955)"><g><path d="M 6.5 0 L 1.015625 0 L 1.015625 -9.21875 L 6.5 -9.21875 L 6.5 -8.34375 L 1.96875 -8.34375 L 1.96875 -5.0625 L 6.359375 -5.0625 L 6.359375 -4.15625 L 1.96875 -4.15625 L 1.96875 -0.875 L 6.5 -0.875 Z M 6.5 0 "/></g></g></g><g fill="#4d473f" fill-opacity="1"><g transform="translate(142.895256, 252.936955)"><g><path d="M 1.96875 -0.953125 L 5.265625 -0.953125 L 5.265625 0 L 1.015625 0 L 1.015625 -9.21875 L 1.96875 -9.21875 Z M 1.96875 -0.953125 "/></g></g></g><g fill="#4d473f" fill-opacity="1"><g transform="translate(157.394966, 252.936955)"><g><path d="M 1.96875 -0.953125 L 5.265625 -0.953125 L 5.265625 0 L 1.015625 0 L 1.015625 -9.21875 L 1.96875 -9.21875 Z M 1.96875 -0.953125 "/></g></g></g><g fill="#4d473f" fill-opacity="1"><g transform="translate(171.894675, 252.936955)"><g><path d="M 1.96875 0 L 1.015625 0 L 1.015625 -9.21875 L 1.96875 -9.21875 Z M 1.96875 0 "/></g></g></g><g fill="#4d473f" fill-opacity="1"><g transform="translate(183.845373, 252.936955)"><g><path d="M 1.96875 -6.796875 L 1.96875 0 L 1.015625 0 L 1.015625 -9.8125 L 6.203125 -2.4375 L 6.203125 -9.21875 L 7.140625 -9.21875 L 7.140625 0.5625 Z M 1.96875 -6.796875 "/></g></g></g><g fill="#4d473f" fill-opacity="1"><g transform="translate(200.975449, 252.936955)"><g><path d="M 10.125 -4.3125 L 10.015625 -3.75 C 9.816406 -2.625 9.269531 -1.695312 8.375 -0.96875 C 7.476562 -0.25 6.472656 0.109375 5.359375 0.109375 C 4.703125 0.109375 4.085938 -0.015625 3.515625 -0.265625 C 2.929688 -0.515625 2.425781 -0.851562 2 -1.28125 C 1.570312 -1.707031 1.234375 -2.210938 0.984375 -2.796875 C 0.734375 -3.367188 0.609375 -3.988281 0.609375 -4.65625 C 0.609375 -5.300781 0.734375 -5.914062 0.984375 -6.5 C 1.234375 -7.070312 1.570312 -7.578125 2 -8.015625 C 2.425781 -8.441406 2.929688 -8.78125 3.515625 -9.03125 C 4.085938 -9.28125 4.671875 -9.40625 5.265625 -9.40625 C 6.367188 -9.40625 7.335938 -9.09375 8.171875 -8.46875 C 9.023438 -7.84375 9.609375 -7.019531 9.921875 -6 L 8.90625 -6 C 8.613281 -6.75 8.148438 -7.34375 7.515625 -7.78125 C 6.859375 -8.226562 6.140625 -8.453125 5.359375 -8.453125 C 4.304688 -8.453125 3.410156 -8.082031 2.671875 -7.34375 C 1.929688 -6.59375 1.5625 -5.695312 1.5625 -4.65625 C 1.5625 -3.613281 1.929688 -2.71875 2.671875 -1.96875 C 3.398438 -1.21875 4.296875 -0.84375 5.359375 -0.84375 C 6.191406 -0.84375 6.953125 -1.082031 7.640625 -1.5625 C 8.316406 -2.050781 8.789062 -2.691406 9.0625 -3.484375 L 5.3125 -3.484375 L 5.3125 -4.3125 Z M 10.125 -4.3125 "/></g></g></g></svg>